<svg xmlns="http://www.w3.org/2000/svg" viewBox="0 0 192 192" fill="none">
  <defs>
    <linearGradient id="keyGrad" x1="0%" y1="0%" x2="100%" y2="100%">
      <stop offset="0%" style="stop-color:#007AFF"/>
      <stop offset="100%" style="stop-color:#5856D6"/>
    </linearGradient>
    <linearGradient id="shieldGrad" x1="0%" y1="0%" x2="100%" y2="100%">
      <stop offset="0%" style="stop-color:#34C759"/>
      <stop offset="100%" style="stop-color:#30D158"/>
    </linearGradient>
  </defs>
  <!-- Background -->
  <rect width="192" height="192" rx="38" fill="#1C1C1E"/>
  <!-- Shield shape -->
  <path d="M96 28C96 28 56 40 56 40C56 40 48 42 48 54C48 82 56 124 96 156C136 124 144 82 144 54C144 42 136 40 136 40C136 40 96 28 96 28Z" fill="url(#shieldGrad)" opacity="0.15"/>
  <path d="M96 36C96 36 64 46 64 46C64 46 58 48 58 58C58 82 64 118 96 146C128 118 134 82 134 58C134 48 128 46 128 46C128 46 96 36 96 36Z" stroke="url(#shieldGrad)" stroke-width="4" fill="none"/>
  <!-- Key icon -->
  <g transform="translate(96, 88)">
    <circle cx="0" cy="-12" r="16" stroke="url(#keyGrad)" stroke-width="5" fill="none"/>
    <rect x="-3" y="4" width="6" height="32" rx="3" fill="url(#keyGrad)"/>
    <rect x="3" y="20" width="12" height="5" rx="2" fill="url(#keyGrad)"/>
    <rect x="3" y="28" width="8" height="5" rx="2" fill="url(#keyGrad)"/>
  </g>
  <!-- Sparkle accents -->
  <circle cx="48" cy="60" r="3" fill="#FFD60A" opacity="0.8"/>
  <circle cx="144" cy="72" r="2" fill="#FF9F0A" opacity="0.6"/>
</svg>
